g WallExtraRounded.OuterCorner
v -0.1464466 0.9 0.1464465
v -0.2222148 0 0.08426508
v -0.1464466 0 0.1464466
v -0.2222149 0.9 0.08426508
v -0.3086583 0 0.0380601
v -0.2264644 0.9382683 0.09062489
v -0.1518552 0.9382683 0.1518551
v -0.2385659 0.9707106 0.1087361
v -0.1672575 0.9707106 0.1672574
v -0.3086583 0.9 0.0380601
v -0.4024549 0 0.009607196
v -0.3115854 0.9382683 0.04512676
v -0.2264644 0.9382683 0.09062489
v -0.319921 0.9707106 0.06525086
v -0.2385659 0.9707106 0.1087361
v -0.4024549 0.9 0.009607158
v -0.5 0 -2.245095E-07
v -0.5 0.9 -2.245095E-07
v -0.5 0.9382683 0.007648661
v -0.4039471 0.9382683 0.01710908
v -0.4039471 0.9382683 0.01710908
v -0.5 0.9707106 0.02943083
v -0.4081966 0.9707106 0.0384727
v -0.3115854 0.9382683 0.04512676
v -0.4081966 0.9707106 0.0384727
v -0.319921 0.9707106 0.06525086
v 5.046553E-08 0.9 0.5
v -0.009607196 0 0.4024548
v 2.523277E-07 0 0.5
v -0.009607327 0.9 0.4024548
v -0.0380601 0 0.3086582
v -0.01710926 0.9382683 0.403947
v -0.007648848 0.9382683 0.5
v -0.03847289 0.9707106 0.4081965
v -0.02943103 0.9707106 0.5
v -0.03806019 0.9 0.3086583
v -0.08426511 0 0.2222148
v -0.04512684 0.9382683 0.3115854
v -0.01710926 0.9382683 0.403947
v -0.06525095 0.9707106 0.319921
v -0.03847289 0.9707106 0.4081965
v -0.08426516 0.9 0.2222148
v -0.1464466 0 0.1464466
v -0.1464466 0.9 0.1464465
v -0.1518552 0.9382683 0.1518551
v -0.09062497 0.9382683 0.2264643
v -0.09062497 0.9382683 0.2264643
v -0.1672575 0.9707106 0.1672574
v -0.1087362 0.9707106 0.2385658
v -0.04512684 0.9382683 0.3115854
v -0.1087362 0.9707106 0.2385658
v -0.06525095 0.9707106 0.319921
v -0.5 0.9923879 0.06203014
v -0.5 0.9707106 0.02943083
v -0.4081966 0.9707106 0.0384727
v -0.4145564 0.9923879 0.07044563
v -0.5 1 0.1004836
v -0.319921 0.9707106 0.06525086
v -0.4220583 1 0.1081603
v -0.5 1 0.4999998
v -0.3323962 0.9923879 0.09536871
v -0.2385659 0.9707106 0.1087361
v -0.3471117 1 0.1308951
v -0.2566771 0.9923879 0.1358414
v -0.1672575 0.9707106 0.1672574
v -0.2780408 1 0.1678143
v -0.1903087 0.9923879 0.1903086
v -0.1087362 0.9707106 0.2385658
v -0.2174995 1 0.2174993
v -0.1358415 0.9923879 0.256677
v -0.06525095 0.9707106 0.319921
v -0.1678145 1 0.2780406
v -0.09536882 0.9923879 0.3323962
v -0.03847289 0.9707106 0.4081965
v -0.1308952 1 0.3471117
v -0.07044582 0.9923879 0.4145563
v -0.02943103 0.9707106 0.5
v -0.06203035 0.9923879 0.4999999
v -0.1081605 1 0.4220582
v -0.1004839 1 0.4999999
vt 0.09375 0.9
vt 0.1749872 0.5
vt 0.09375 0.5
vt 0.1749872 0.9
vt 0.2065892 0.5
vt 0.1743659 0.9382684
vt 0.09437138 0.9382683
vt 0.1725963 1
vt 0.09614091 1
vt 0.2065892 0.9
vt 0.2408793 0.5
vt 0.2063475 0.9382683
vt 0.175229 0.9382684
vt 0.2056591 1
vt 0.1759173 1
vt 0.2408793 0.9
vt 0.2765398 0.5
vt 0.2765399 0.9
vt 0.2762671 0.9382683
vt 0.2406171 0.9382683
vt 0.2411521 0.9382684
vt 0.2754903 1
vt 0.2419288 1
vt 0.2068515 0.9382683
vt 0.2398701 1
vt 0.2075984 1
vt 0.7188215 0.9000004
vt 0.7642713 0.5000001
vt 0.7188215 0.5000001
vt 0.7642713 0.9000003
vt 0.8079743 0.5
vt 0.7639237 0.9382687
vt 0.7191692 0.9382688
vt 0.7629337 1
vt 0.7201591 1
vt 0.8079745 0.9000002
vt 0.8482515 0.5
vt 0.8076402 0.9382685
vt 0.7646056 0.9382686
vt 0.8066882 1
vt 0.7655576 1
vt 0.8482515 0.9000002
vt 0.9517892 0.4999999
vt 0.9517893 0.8999999
vt 0.9509974 0.9382683
vt 0.8479434 0.9382684
vt 0.8490434 0.9382684
vt 0.9487421 0.9999999
vt 0.8512987 1
vt 0.8082826 0.9382685
vt 0.847066 1
vt 0.8091598 1
vt 0 0
vt 0 0
vt 0 0
vt 0 0
vt 0 0
vt 0 0
vt 0 0
vt 0 0
vt 0 0
vt 0 0
vt 0 0
vt 0 0
vt 0 0
vt 0 0
vt 0 0
vt 0 0
vt 0 0
vt 0 0
vt 0 0
vt 0 0
vt 0 0
vt 0 0
vt 0 0
vt 0 0
vt 0 0
vt 0 0
vt 0 0
vt 0 0
vn 0.7037113 0.09788181 -0.7037112
vn 0.5555703 0 -0.8314695
vn 0.7071069 0 -0.7071066
vn 0.5529023 0.09788166 -0.827477
vn 0.3826837 0 -0.9238794
vn 0.5139225 0.379879 -0.7691395
vn 0.6540993 0.3798792 -0.6540993
vn 0.395311 0.7026447 -0.5916246
vn 0.5031354 0.7026446 -0.5031354
vn 0.3808461 0.0978817 -0.919443
vn 0.1950908 0 -0.9807853
vn 0.3539961 0.3798789 -0.8546219
vn 0.5139225 0.379879 -0.7691395
vn 0.2722951 0.7026448 -0.657378
vn 0.395311 0.7026447 -0.5916246
vn 0.1941541 0.09788183 -0.9760754
vn 0.09801758 0 -0.9951847
vn 0.09755129 0.09741485 -0.9904515
vn 0.09073254 0.3783121 -0.9212207
vn 0.1804661 0.3798791 -0.9072618
vn 0.1804661 0.3798791 -0.9072618
vn 0.06990946 0.7009258 -0.7097997
vn 0.1388151 0.7026447 -0.6978687
vn 0.3539961 0.3798789 -0.8546219
vn 0.1388151 0.7026447 -0.6978687
vn 0.2722951 0.7026448 -0.657378
vn 0.9904524 0.09740008 -0.09755623
vn 0.9807853 0 -0.1950907
vn 0.9951847 0 -0.09801766
vn 0.9760755 0.09788189 -0.1941537
vn 0.9238794 0 -0.3826836
vn 0.9072617 0.3798794 -0.1804658
vn 0.9212204 0.3783127 -0.09073274
vn 0.6978686 0.7026449 -0.1388146
vn 0.7097998 0.7009258 -0.06990932
vn 0.9194431 0.09788173 -0.3808457
vn 0.8314695 0 -0.5555703
vn 0.854622 0.3798792 -0.3539957
vn 0.9072617 0.3798794 -0.1804658
vn 0.657378 0.7026449 -0.2722947
vn 0.6978686 0.7026449 -0.1388146
vn 0.827477 0.09788169 -0.5529023
vn 0.7071069 0 -0.7071066
vn 0.7037113 0.09788181 -0.7037112
vn 0.6540993 0.3798792 -0.6540993
vn 0.7691395 0.3798792 -0.5139225
vn 0.7691395 0.3798792 -0.5139225
vn 0.5031354 0.7026446 -0.5031354
vn 0.5916245 0.7026449 -0.3953108
vn 0.854622 0.3798792 -0.3539957
vn 0.5916245 0.7026449 -0.3953108
vn 0.657378 0.7026449 -0.2722947
vn 0.03853218 0.9194893 -0.3912218
vn 0.06990946 0.7009258 -0.7097997
vn 0.1388151 0.7026447 -0.6978687
vn 0.0763806 0.9201728 -0.3839897
vn 0.0102021 0.9945685 -0.1035837
vn 0.2722951 0.7026448 -0.657378
vn 0.02020921 0.9946202 -0.1015982
vn 0 1 0
vn 0.1498257 0.9201728 -0.3617104
vn 0.395311 0.7026447 -0.5916246
vn 0.03964173 0.9946202 -0.09570348
vn 0.2175129 0.9201725 -0.3255315
vn 0.5031354 0.7026446 -0.5031354
vn 0.05755082 0.9946202 -0.08613141
vn 0.2768414 0.9201726 -0.2768416
vn 0.5916245 0.7026449 -0.3953108
vn 0.0732483 0.9946202 -0.07324851
vn 0.325531 0.9201727 -0.2175125
vn 0.657378 0.7026449 -0.2722947
vn 0.08613089 0.9946202 -0.05755051
vn 0.3617105 0.9201727 -0.1498253
vn 0.6978686 0.7026449 -0.1388146
vn 0.09570348 0.9946202 -0.03964113
vn 0.38399 0.9201727 -0.07638011
vn 0.7097998 0.7009258 -0.06990932
vn 0.3912222 0.9194893 -0.03853174
vn 0.1015983 0.9946202 -0.02020881
vn 0.1035833 0.9945685 -0.01020196
g WallExtraRounded.OuterCorner_0
f 3/3/3 2/2/2 1/1/1
f 2/2/2 4/4/4 1/1/1
f 2/2/2 5/5/5 4/4/4
f 1/1/1 4/4/4 6/6/6
f 7/7/7 1/1/1 6/6/6
f 7/7/7 6/6/6 8/8/8
f 9/9/9 7/7/7 8/8/8
f 5/5/5 10/10/10 4/4/4
f 5/5/5 11/11/11 10/10/10
f 4/4/4 10/10/10 12/12/12
f 13/13/13 4/4/4 12/12/12
f 13/13/13 12/12/12 14/14/14
f 15/15/15 13/13/13 14/14/14
f 11/11/11 16/16/16 10/10/10
f 11/11/11 17/17/17 16/16/16
f 17/17/17 18/18/18 16/16/16
f 16/16/16 18/18/18 19/19/19
f 10/10/10 16/16/16 20/20/20
f 21/21/21 16/16/16 19/19/19
f 21/21/21 19/19/19 22/22/22
f 23/23/23 21/21/21 22/22/22
f 24/24/24 10/10/10 20/20/20
f 24/24/24 20/20/20 25/25/25
f 26/26/26 24/24/24 25/25/25
f 29/29/29 28/28/28 27/27/27
f 28/28/28 30/30/30 27/27/27
f 28/28/28 31/31/31 30/30/30
f 27/27/27 30/30/30 32/32/32
f 33/33/33 27/27/27 32/32/32
f 33/33/33 32/32/32 34/34/34
f 35/35/35 33/33/33 34/34/34
f 31/31/31 36/36/36 30/30/30
f 31/31/31 37/37/37 36/36/36
f 30/30/30 36/36/36 38/38/38
f 39/39/39 30/30/30 38/38/38
f 39/39/39 38/38/38 40/40/40
f 41/41/41 39/39/39 40/40/40
f 37/37/37 42/42/42 36/36/36
f 37/37/37 43/43/43 42/42/42
f 43/43/43 44/44/44 42/42/42
f 42/42/42 44/44/44 45/45/45
f 36/36/36 42/42/42 46/46/46
f 47/47/47 42/42/42 45/45/45
f 47/47/47 45/45/45 48/48/48
f 49/49/49 47/47/47 48/48/48
f 50/50/50 36/36/36 46/46/46
f 50/50/50 46/46/46 51/51/51
f 52/52/52 50/50/50 51/51/51
f 55/55/55 54/54/54 53/53/53
f 56/56/56 55/55/55 53/53/53
f 56/56/56 53/53/53 57/57/57
f 58/58/58 55/55/55 56/56/56
f 59/59/59 56/56/56 57/57/57
f 57/57/57 60/60/60 59/59/59
f 61/61/61 58/58/58 56/56/56
f 61/61/61 56/56/56 59/59/59
f 62/62/62 58/58/58 61/61/61
f 63/63/63 61/61/61 59/59/59
f 59/59/59 60/60/60 63/63/63
f 64/64/64 62/62/62 61/61/61
f 64/64/64 61/61/61 63/63/63
f 65/65/65 62/62/62 64/64/64
f 66/66/66 64/64/64 63/63/63
f 60/60/60 66/66/66 63/63/63
f 67/67/67 65/65/65 64/64/64
f 67/67/67 64/64/64 66/66/66
f 68/68/68 65/65/65 67/67/67
f 69/69/69 67/67/67 66/66/66
f 60/60/60 69/69/69 66/66/66
f 70/70/70 68/68/68 67/67/67
f 70/70/70 67/67/67 69/69/69
f 71/71/71 68/68/68 70/70/70
f 72/72/72 70/70/70 69/69/69
f 60/60/60 72/72/72 69/69/69
f 73/73/73 71/71/71 70/70/70
f 73/73/73 70/70/70 72/72/72
f 74/74/74 71/71/71 73/73/73
f 60/60/60 75/75/75 72/72/72
f 75/75/75 73/73/73 72/72/72
f 76/76/76 74/74/74 73/73/73
f 76/76/76 73/73/73 75/75/75
f 77/77/77 74/74/74 76/76/76
f 78/78/78 77/77/77 76/76/76
f 60/60/60 79/79/79 75/75/75
f 79/79/79 76/76/76 75/75/75
f 78/78/78 76/76/76 79/79/79
f 80/80/80 79/79/79 60/60/60
f 80/80/80 78/78/78 79/79/79
