g Ground1
v 0.4459649 0.00350073 -0.493337
v 0.4124677 0.00350073 -0.5
v 0 0.00350073 -0.5
v -0.4124677 0.00350073 -0.5
v -0.4459649 0.00350073 -0.493337
v 0.4743624 0.00350073 -0.4743624
v -0.4743624 0.00350073 -0.4743624
v 0.493337 0.00350073 -0.4459649
v -0.493337 0.00350073 -0.4459649
v 0.5 0.00350073 -0.4124677
v -0.5 0.00350073 -0.4124677
v 0.5 0.00350073 0
v -0.5 0.00350073 0
v 0.5 0.00350073 0.4124677
v -0.5 0.00350073 0.4124677
v 0.493337 0.00350073 0.4459649
v -0.493337 0.00350073 0.4459649
v 0.4743624 0.00350073 0.4743624
v -0.4743624 0.00350073 0.4743624
v 0.4459649 0.00350073 0.493337
v -0.4459649 0.00350073 0.493337
v 0.4124677 0.00350073 0.5
v -0.4124677 0.00350073 0.5
v 0 0.00350073 0.5
vt 0.08599854 0.9453125
vt 0.08599854 0.9453125
vt 0.08599854 0.9453125
vt 0.08599854 0.9453125
vt 0.08599854 0.9453125
vt 0.08599854 0.9453125
vt 0.08599854 0.9453125
vt 0.08599854 0.9453125
vt 0.08599854 0.9453125
vt 0.08599854 0.9453125
vt 0.08599854 0.9453125
vt 0.08599854 0.9453125
vt 0.08599854 0.9453125
vt 0.08599854 0.9453125
vt 0.08599854 0.9453125
vt 0.08599854 0.9453125
vt 0.08599854 0.9453125
vt 0.08599854 0.9453125
vt 0.08599854 0.9453125
vt 0.08599854 0.9453125
vt 0.08599854 0.9453125
vt 0.08599854 0.9453125
vt 0.08599854 0.9453125
vt 0.08599854 0.9453125
vn 0 -1 0
vn 0 -1 0
vn 0 -1 0
vn 0 -1 0
vn 0 -1 0
vn 0 -1 0
vn 0 -1 0
vn 0 -1 0
vn 0 -1 0
vn 0 -1 0
vn 0 -1 0
vn 0 -1 0
vn 0 -1 0
vn 0 -1 0
vn 0 -1 0
vn 0 -1 0
vn 0 -1 0
vn 0 -1 0
vn 0 -1 0
vn 0 -1 0
vn 0 -1 0
vn 0 -1 0
vn 0 -1 0
vn 0 -1 0
g Ground1_0
f 3/3/3 2/2/2 1/1/1
f 1/1/1 4/4/4 3/3/3
f 1/1/1 5/5/5 4/4/4
f 1/1/1 6/6/6 5/5/5
f 6/6/6 7/7/7 5/5/5
f 6/6/6 8/8/8 7/7/7
f 8/8/8 9/9/9 7/7/7
f 8/8/8 10/10/10 9/9/9
f 10/10/10 11/11/11 9/9/9
f 10/10/10 12/12/12 11/11/11
f 12/12/12 13/13/13 11/11/11
f 12/12/12 14/14/14 13/13/13
f 14/14/14 15/15/15 13/13/13
f 14/14/14 16/16/16 15/15/15
f 16/16/16 17/17/17 15/15/15
f 16/16/16 18/18/18 17/17/17
f 18/18/18 19/19/19 17/17/17
f 18/18/18 20/20/20 19/19/19
f 20/20/20 21/21/21 19/19/19
f 20/20/20 22/22/22 21/21/21
f 22/22/22 23/23/23 21/21/21
f 22/22/22 24/24/24 23/23/23
